<?xml version="1.0" encoding="UTF-8" standalone="no"?>
<!DOCTYPE svg PUBLIC "-//W3C//DTD SVG 1.1//EN"
 "http://www.w3.org/Graphics/SVG/1.1/DTD/svg11.dtd">
<!-- Generated by graphviz version 15.0.0 (20260523.1842)
 -->
<!-- Title: snakemake_dag Pages: 1 -->
<svg width="723pt" height="836pt"
 viewBox="0.00 0.00 723.00 836.00" xmlns="http://www.w3.org/2000/svg" xmlns:xlink="http://www.w3.org/1999/xlink">
<g id="graph0" class="graph" transform="scale(1 1) rotate(0) translate(4 832)">
<title>snakemake_dag</title>
<polygon fill="white" stroke="none" points="-4,4 -4,-832 718.51,-832 718.51,4 -4,4"/>
<!-- 0 -->
<g id="node1" class="node">
<title>0</title>
<path fill="none" stroke="#d86e56" stroke-width="2" d="M315.39,-36C315.39,-36 285.39,-36 285.39,-36 279.39,-36 273.39,-30 273.39,-24 273.39,-24 273.39,-12 273.39,-12 273.39,-6 279.39,0 285.39,0 285.39,0 315.39,0 315.39,0 321.39,0 327.39,-6 327.39,-12 327.39,-12 327.39,-24 327.39,-24 327.39,-30 321.39,-36 315.39,-36"/>
<text xml:space="preserve" text-anchor="middle" x="300.39" y="-14.12" font-family="sans" font-size="10.00">all</text>
</g>
<!-- 1 -->
<g id="node2" class="node">
<title>1</title>
<path fill="none" stroke="#56a9d8" stroke-width="2" d="M235.01,-252C235.01,-252 165.76,-252 165.76,-252 159.76,-252 153.76,-246 153.76,-240 153.76,-240 153.76,-228 153.76,-228 153.76,-222 159.76,-216 165.76,-216 165.76,-216 235.01,-216 235.01,-216 241.01,-216 247.01,-222 247.01,-228 247.01,-228 247.01,-240 247.01,-240 247.01,-246 241.01,-252 235.01,-252"/>
<text xml:space="preserve" text-anchor="middle" x="200.39" y="-230.12" font-family="sans" font-size="10.00">sample_metadata</text>
</g>
<!-- 1&#45;&gt;0 -->
<g id="edge6" class="edge">
<title>1&#45;&gt;0</title>
<path fill="none" stroke="grey" stroke-width="2" d="M153.02,-230.13C86.04,-223.91 -25.01,-204.42 5.39,-144 52.61,-50.13 190.78,-26.73 259.95,-20.92"/>
<polygon fill="grey" stroke="grey" stroke-width="2" points="260.08,-24.41 269.8,-20.19 259.57,-17.43 260.08,-24.41"/>
</g>
<!-- 18 -->
<g id="node19" class="node">
<title>18</title>
<path fill="none" stroke="#56d8d0" stroke-width="2" d="M372.51,-180C372.51,-180 276.26,-180 276.26,-180 270.26,-180 264.26,-174 264.26,-168 264.26,-168 264.26,-156 264.26,-156 264.26,-150 270.26,-144 276.26,-144 276.26,-144 372.51,-144 372.51,-144 378.51,-144 384.51,-150 384.51,-156 384.51,-156 384.51,-168 384.51,-168 384.51,-174 378.51,-180 372.51,-180"/>
<text xml:space="preserve" text-anchor="middle" x="324.39" y="-158.12" font-family="sans" font-size="10.00">merge_sars_cov2_stats</text>
</g>
<!-- 1&#45;&gt;18 -->
<g id="edge23" class="edge">
<title>1&#45;&gt;18</title>
<path fill="none" stroke="grey" stroke-width="2" d="M232,-215.15C247.16,-206.6 265.54,-196.22 281.9,-186.99"/>
<polygon fill="grey" stroke="grey" stroke-width="2" points="283.21,-190.26 290.2,-182.3 279.77,-184.17 283.21,-190.26"/>
</g>
<!-- 24 -->
<g id="node25" class="node">
<title>24</title>
<path fill="none" stroke="#56b9d8" stroke-width="2" d="M308.39,-108C308.39,-108 196.39,-108 196.39,-108 190.39,-108 184.39,-102 184.39,-96 184.39,-96 184.39,-84 184.39,-84 184.39,-78 190.39,-72 196.39,-72 196.39,-72 308.39,-72 308.39,-72 314.39,-72 320.39,-78 320.39,-84 320.39,-84 320.39,-96 320.39,-96 320.39,-102 314.39,-108 308.39,-108"/>
<text xml:space="preserve" text-anchor="middle" x="252.39" y="-86.12" font-family="sans" font-size="10.00">render_takehome_notebook</text>
</g>
<!-- 1&#45;&gt;24 -->
<g id="edge35" class="edge">
<title>1&#45;&gt;24</title>
<path fill="none" stroke="grey" stroke-width="2" d="M206.98,-215.02C215.65,-191.33 231.02,-149.35 241.45,-120.86"/>
<polygon fill="grey" stroke="grey" stroke-width="2" points="244.66,-122.27 244.82,-111.68 238.09,-119.87 244.66,-122.27"/>
</g>
<!-- 2 -->
<g id="node3" class="node">
<title>2</title>
<path fill="none" stroke="#56d0d8" stroke-width="2" d="M74.51,-180C74.51,-180 26.26,-180 26.26,-180 20.26,-180 14.26,-174 14.26,-168 14.26,-168 14.26,-156 14.26,-156 14.26,-150 20.26,-144 26.26,-144 26.26,-144 74.51,-144 74.51,-144 80.51,-144 86.51,-150 86.51,-156 86.51,-156 86.51,-168 86.51,-168 86.51,-174 80.51,-180 74.51,-180"/>
<text xml:space="preserve" text-anchor="middle" x="50.39" y="-158.12" font-family="sans" font-size="10.00">qc_summary</text>
</g>
<!-- 2&#45;&gt;0 -->
<g id="edge4" class="edge">
<title>2&#45;&gt;0</title>
<path fill="none" stroke="grey" stroke-width="2" d="M67.48,-143.13C87.13,-123.44 121.1,-91.94 155.39,-72 188.64,-52.66 230.17,-38.35 260.26,-29.51"/>
<polygon fill="grey" stroke="grey" stroke-width="2" points="260.82,-32.99 269.48,-26.88 258.9,-26.25 260.82,-32.99"/>
</g>
<!-- 2&#45;&gt;24 -->
<g id="edge33" class="edge">
<title>2&#45;&gt;24</title>
<path fill="none" stroke="grey" stroke-width="2" d="M87.19,-146.98C89.96,-145.96 92.72,-144.96 95.39,-144 124.89,-133.45 157.69,-122.29 185.66,-112.94"/>
<polygon fill="grey" stroke="grey" stroke-width="2" points="186.48,-116.36 194.86,-109.88 184.26,-109.72 186.48,-116.36"/>
</g>
<!-- 3 -->
<g id="node4" class="node">
<title>3</title>
<path fill="none" stroke="#68d856" stroke-width="2" d="M196.64,-180C196.64,-180 116.14,-180 116.14,-180 110.14,-180 104.14,-174 104.14,-168 104.14,-168 104.14,-156 104.14,-156 104.14,-150 110.14,-144 116.14,-144 116.14,-144 196.64,-144 196.64,-144 202.64,-144 208.64,-150 208.64,-156 208.64,-156 208.64,-168 208.64,-168 208.64,-174 202.64,-180 196.64,-180"/>
<text xml:space="preserve" text-anchor="middle" x="156.39" y="-158.12" font-family="sans" font-size="10.00">host_filter_summary</text>
</g>
<!-- 3&#45;&gt;0 -->
<g id="edge2" class="edge">
<title>3&#45;&gt;0</title>
<path fill="none" stroke="grey" stroke-width="2" d="M155.59,-143.23C155.66,-123.64 158.69,-92.23 175.39,-72 196.5,-46.42 232.17,-32.95 260.02,-26"/>
<polygon fill="grey" stroke="grey" stroke-width="2" points="260.63,-29.45 269.62,-23.84 259.09,-22.62 260.63,-29.45"/>
</g>
<!-- 3&#45;&gt;24 -->
<g id="edge31" class="edge">
<title>3&#45;&gt;24</title>
<path fill="none" stroke="grey" stroke-width="2" d="M180.86,-143.15C192.03,-135.01 205.46,-125.22 217.65,-116.33"/>
<polygon fill="grey" stroke="grey" stroke-width="2" points="219.5,-119.32 225.51,-110.6 215.37,-113.66 219.5,-119.32"/>
</g>
<!-- 4 -->
<g id="node5" class="node">
<title>4</title>
<path fill="none" stroke="#56d8a9" stroke-width="2" d="M702.51,-108C702.51,-108 612.26,-108 612.26,-108 606.26,-108 600.26,-102 600.26,-96 600.26,-96 600.26,-84 600.26,-84 600.26,-78 606.26,-72 612.26,-72 612.26,-72 702.51,-72 702.51,-72 708.51,-72 714.51,-78 714.51,-84 714.51,-84 714.51,-96 714.51,-96 714.51,-102 708.51,-108 702.51,-108"/>
<text xml:space="preserve" text-anchor="middle" x="657.39" y="-86.12" font-family="sans" font-size="10.00">merge_bracken_genus</text>
</g>
<!-- 4&#45;&gt;0 -->
<g id="edge1" class="edge">
<title>4&#45;&gt;0</title>
<path fill="none" stroke="grey" stroke-width="2" d="M599.32,-74.84C594.95,-73.85 590.6,-72.89 586.39,-72 499.23,-53.5 396.35,-35.32 340.82,-25.81"/>
<polygon fill="grey" stroke="grey" stroke-width="2" points="341.52,-22.38 331.08,-24.15 340.35,-29.28 341.52,-22.38"/>
</g>
<!-- 5 -->
<g id="node6" class="node">
<title>5</title>
<path fill="none" stroke="#d87d56" stroke-width="2" d="M686.39,-324C686.39,-324 628.39,-324 628.39,-324 622.39,-324 616.39,-318 616.39,-312 616.39,-312 616.39,-300 616.39,-300 616.39,-294 622.39,-288 628.39,-288 628.39,-288 686.39,-288 686.39,-288 692.39,-288 698.39,-294 698.39,-300 698.39,-300 698.39,-312 698.39,-312 698.39,-318 692.39,-324 686.39,-324"/>
<text xml:space="preserve" text-anchor="middle" x="657.39" y="-302.12" font-family="sans" font-size="10.00">bracken_genus</text>
</g>
<!-- 5&#45;&gt;4 -->
<g id="edge9" class="edge">
<title>5&#45;&gt;4</title>
<path fill="none" stroke="grey" stroke-width="2" d="M657.39,-287.12C657.39,-250.62 657.39,-167.13 657.39,-121.74"/>
<polygon fill="grey" stroke="grey" stroke-width="2" points="660.89,-122 657.39,-112 653.89,-122 660.89,-122"/>
</g>
<!-- 6 -->
<g id="node7" class="node">
<title>6</title>
<path fill="none" stroke="#56d892" stroke-width="2" d="M611.14,-396C611.14,-396 545.64,-396 545.64,-396 539.64,-396 533.64,-390 533.64,-384 533.64,-384 533.64,-372 533.64,-372 533.64,-366 539.64,-360 545.64,-360 545.64,-360 611.14,-360 611.14,-360 617.14,-360 623.14,-366 623.14,-372 623.14,-372 623.14,-384 623.14,-384 623.14,-390 617.14,-396 611.14,-396"/>
<text xml:space="preserve" text-anchor="middle" x="578.39" y="-374.12" font-family="sans" font-size="10.00">kraken2_classify</text>
</g>
<!-- 6&#45;&gt;5 -->
<g id="edge10" class="edge">
<title>6&#45;&gt;5</title>
<path fill="none" stroke="grey" stroke-width="2" d="M598.32,-359.34C607.14,-351.52 617.71,-342.16 627.44,-333.53"/>
<polygon fill="grey" stroke="grey" stroke-width="2" points="629.76,-336.16 634.92,-326.91 625.11,-330.92 629.76,-336.16"/>
</g>
<!-- 16 -->
<g id="node17" class="node">
<title>16</title>
<path fill="none" stroke="#d89556" stroke-width="2" d="M586.14,-324C586.14,-324 520.64,-324 520.64,-324 514.64,-324 508.64,-318 508.64,-312 508.64,-312 508.64,-300 508.64,-300 508.64,-294 514.64,-288 520.64,-288 520.64,-288 586.14,-288 586.14,-288 592.14,-288 598.14,-294 598.14,-300 598.14,-300 598.14,-312 598.14,-312 598.14,-318 592.14,-324 586.14,-324"/>
<text xml:space="preserve" text-anchor="middle" x="553.39" y="-302.12" font-family="sans" font-size="10.00">bracken_species</text>
</g>
<!-- 6&#45;&gt;16 -->
<g id="edge21" class="edge">
<title>6&#45;&gt;16</title>
<path fill="none" stroke="grey" stroke-width="2" d="M572.08,-359.34C569.67,-352.59 566.85,-344.69 564.14,-337.11"/>
<polygon fill="grey" stroke="grey" stroke-width="2" points="567.46,-335.99 560.8,-327.75 560.87,-338.35 567.46,-335.99"/>
</g>
<!-- 7 -->
<g id="node8" class="node">
<title>7</title>
<path fill="none" stroke="#80d856" stroke-width="2" d="M570.39,-468C570.39,-468 512.39,-468 512.39,-468 506.39,-468 500.39,-462 500.39,-456 500.39,-456 500.39,-444 500.39,-444 500.39,-438 506.39,-432 512.39,-432 512.39,-432 570.39,-432 570.39,-432 576.39,-432 582.39,-438 582.39,-444 582.39,-444 582.39,-456 582.39,-456 582.39,-462 576.39,-468 570.39,-468"/>
<text xml:space="preserve" text-anchor="middle" x="541.39" y="-446.12" font-family="sans" font-size="10.00">host_filter_bwa</text>
</g>
<!-- 7&#45;&gt;6 -->
<g id="edge11" class="edge">
<title>7&#45;&gt;6</title>
<path fill="none" stroke="grey" stroke-width="2" d="M550.73,-431.34C554.42,-424.34 558.77,-416.12 562.91,-408.28"/>
<polygon fill="grey" stroke="grey" stroke-width="2" points="565.93,-410.05 567.51,-399.58 559.74,-406.78 565.93,-410.05"/>
</g>
<!-- 20 -->
<g id="node21" class="node">
<title>20</title>
<path fill="none" stroke="#d85656" stroke-width="2" d="M455.64,-324C455.64,-324 393.14,-324 393.14,-324 387.14,-324 381.14,-318 381.14,-312 381.14,-312 381.14,-300 381.14,-300 381.14,-294 387.14,-288 393.14,-288 393.14,-288 455.64,-288 455.64,-288 461.64,-288 467.64,-294 467.64,-300 467.64,-300 467.64,-312 467.64,-312 467.64,-318 461.64,-324 455.64,-324"/>
<text xml:space="preserve" text-anchor="middle" x="424.39" y="-302.12" font-family="sans" font-size="10.00">align_sars_cov2</text>
</g>
<!-- 7&#45;&gt;20 -->
<g id="edge28" class="edge">
<title>7&#45;&gt;20</title>
<path fill="none" stroke="grey" stroke-width="2" d="M532.52,-431.2C522.68,-412.42 505.65,-382.48 486.39,-360 478.2,-350.45 468.23,-341.14 458.69,-333.06"/>
<polygon fill="grey" stroke="grey" stroke-width="2" points="460.93,-330.36 450.97,-326.73 456.49,-335.78 460.93,-330.36"/>
</g>
<!-- 8 -->
<g id="node9" class="node">
<title>8</title>
<path fill="none" stroke="#a7d856" stroke-width="2" d="M501.14,-540C501.14,-540 399.64,-540 399.64,-540 393.64,-540 387.64,-534 387.64,-528 387.64,-528 387.64,-516 387.64,-516 387.64,-510 393.64,-504 399.64,-504 399.64,-504 501.14,-504 501.14,-504 507.14,-504 513.14,-510 513.14,-516 513.14,-516 513.14,-528 513.14,-528 513.14,-534 507.14,-540 501.14,-540"/>
<text xml:space="preserve" text-anchor="middle" x="450.39" y="-518.12" font-family="sans" font-size="10.00">downsample_reformatted</text>
</g>
<!-- 8&#45;&gt;7 -->
<g id="edge14" class="edge">
<title>8&#45;&gt;7</title>
<path fill="none" stroke="grey" stroke-width="2" d="M473.35,-503.34C483.83,-495.27 496.45,-485.57 507.96,-476.72"/>
<polygon fill="grey" stroke="grey" stroke-width="2" points="509.93,-479.62 515.72,-470.75 505.66,-474.07 509.93,-479.62"/>
</g>
<!-- 9 -->
<g id="node10" class="node">
<title>9</title>
<path fill="none" stroke="#d8cb56" stroke-width="2" d="M493.64,-612C493.64,-612 407.14,-612 407.14,-612 401.14,-612 395.14,-606 395.14,-600 395.14,-600 395.14,-588 395.14,-588 395.14,-582 401.14,-576 407.14,-576 407.14,-576 493.64,-576 493.64,-576 499.64,-576 505.64,-582 505.64,-588 505.64,-588 505.64,-600 505.64,-600 505.64,-606 499.64,-612 493.64,-612"/>
<text xml:space="preserve" text-anchor="middle" x="450.39" y="-590.12" font-family="sans" font-size="10.00">deinterleave_deduped</text>
</g>
<!-- 9&#45;&gt;8 -->
<g id="edge15" class="edge">
<title>9&#45;&gt;8</title>
<path fill="none" stroke="grey" stroke-width="2" d="M450.39,-575.34C450.39,-568.75 450.39,-561.08 450.39,-553.67"/>
<polygon fill="grey" stroke="grey" stroke-width="2" points="453.89,-553.93 450.39,-543.93 446.89,-553.93 453.89,-553.93"/>
</g>
<!-- 10 -->
<g id="node11" class="node">
<title>10</title>
<path fill="none" stroke="#d8bc56" stroke-width="2" d="M480.51,-684C480.51,-684 420.26,-684 420.26,-684 414.26,-684 408.26,-678 408.26,-672 408.26,-672 408.26,-660 408.26,-660 408.26,-654 414.26,-648 420.26,-648 420.26,-648 480.51,-648 480.51,-648 486.51,-648 492.51,-654 492.51,-660 492.51,-660 492.51,-672 492.51,-672 492.51,-678 486.51,-684 480.51,-684"/>
<text xml:space="preserve" text-anchor="middle" x="450.39" y="-662.12" font-family="sans" font-size="10.00">dedupe_bbtools</text>
</g>
<!-- 10&#45;&gt;9 -->
<g id="edge16" class="edge">
<title>10&#45;&gt;9</title>
<path fill="none" stroke="grey" stroke-width="2" d="M450.39,-647.34C450.39,-640.75 450.39,-633.08 450.39,-625.67"/>
<polygon fill="grey" stroke="grey" stroke-width="2" points="453.89,-625.93 450.39,-615.93 446.89,-625.93 453.89,-625.93"/>
</g>
<!-- 11 -->
<g id="node12" class="node">
<title>11</title>
<path fill="none" stroke="#8fd856" stroke-width="2" d="M465.39,-756C465.39,-756 435.39,-756 435.39,-756 429.39,-756 423.39,-750 423.39,-744 423.39,-744 423.39,-732 423.39,-732 423.39,-726 429.39,-720 435.39,-720 435.39,-720 465.39,-720 465.39,-720 471.39,-720 477.39,-726 477.39,-732 477.39,-732 477.39,-744 477.39,-744 477.39,-750 471.39,-756 465.39,-756"/>
<text xml:space="preserve" text-anchor="middle" x="450.39" y="-734.12" font-family="sans" font-size="10.00">fastp_qc</text>
</g>
<!-- 11&#45;&gt;10 -->
<g id="edge17" class="edge">
<title>11&#45;&gt;10</title>
<path fill="none" stroke="grey" stroke-width="2" d="M450.39,-719.34C450.39,-712.75 450.39,-705.08 450.39,-697.67"/>
<polygon fill="grey" stroke="grey" stroke-width="2" points="453.89,-697.93 450.39,-687.93 446.89,-697.93 453.89,-697.93"/>
</g>
<!-- 12 -->
<g id="node13" class="node">
<title>12</title>
<path fill="none" stroke="#b6d856" stroke-width="2" d="M488.76,-828C488.76,-828 412.01,-828 412.01,-828 406.01,-828 400.01,-822 400.01,-816 400.01,-816 400.01,-804 400.01,-804 400.01,-798 406.01,-792 412.01,-792 412.01,-792 488.76,-792 488.76,-792 494.76,-792 500.76,-798 500.76,-804 500.76,-804 500.76,-816 500.76,-816 500.76,-822 494.76,-828 488.76,-828"/>
<text xml:space="preserve" text-anchor="middle" x="450.39" y="-806.12" font-family="sans" font-size="10.00">download_srr_fastq</text>
</g>
<!-- 12&#45;&gt;11 -->
<g id="edge18" class="edge">
<title>12&#45;&gt;11</title>
<path fill="none" stroke="grey" stroke-width="2" d="M450.39,-791.34C450.39,-784.75 450.39,-777.08 450.39,-769.67"/>
<polygon fill="grey" stroke="grey" stroke-width="2" points="453.89,-769.93 450.39,-759.93 446.89,-769.93 453.89,-769.93"/>
</g>
<!-- 13 -->
<g id="node14" class="node">
<title>13</title>
<path fill="none" stroke="#ced856" stroke-width="2" d="M662.89,-612C662.89,-612 559.89,-612 559.89,-612 553.89,-612 547.89,-606 547.89,-600 547.89,-600 547.89,-588 547.89,-588 547.89,-582 553.89,-576 559.89,-576 559.89,-576 662.89,-576 662.89,-576 668.89,-576 674.89,-582 674.89,-588 674.89,-588 674.89,-600 674.89,-600 674.89,-606 668.89,-612 662.89,-612"/>
<text xml:space="preserve" text-anchor="middle" x="611.39" y="-590.12" font-family="sans" font-size="10.00">download_host_reference</text>
</g>
<!-- 13&#45;&gt;7 -->
<g id="edge13" class="edge">
<title>13&#45;&gt;7</title>
<path fill="none" stroke="grey" stroke-width="2" d="M589.07,-575C578.85,-565.61 567.46,-553.31 560.39,-540 550.81,-521.96 546.06,-499.45 543.71,-481.58"/>
<polygon fill="grey" stroke="grey" stroke-width="2" points="547.19,-481.27 542.63,-471.71 540.23,-482.03 547.19,-481.27"/>
</g>
<!-- 14 -->
<g id="node15" class="node">
<title>14</title>
<path fill="none" stroke="#59d856" stroke-width="2" d="M689.51,-540C689.51,-540 581.26,-540 581.26,-540 575.26,-540 569.26,-534 569.26,-528 569.26,-528 569.26,-516 569.26,-516 569.26,-510 575.26,-504 581.26,-504 581.26,-504 689.51,-504 689.51,-504 695.51,-504 701.51,-510 701.51,-516 701.51,-516 701.51,-528 701.51,-528 701.51,-534 695.51,-540 689.51,-540"/>
<text xml:space="preserve" text-anchor="middle" x="635.39" y="-518.12" font-family="sans" font-size="10.00">index_host_reference_bwa</text>
</g>
<!-- 13&#45;&gt;14 -->
<g id="edge19" class="edge">
<title>13&#45;&gt;14</title>
<path fill="none" stroke="grey" stroke-width="2" d="M617.45,-575.34C619.76,-568.59 622.47,-560.69 625.07,-553.11"/>
<polygon fill="grey" stroke="grey" stroke-width="2" points="628.34,-554.36 628.27,-543.77 621.72,-552.09 628.34,-554.36"/>
</g>
<!-- 14&#45;&gt;7 -->
<g id="edge12" class="edge">
<title>14&#45;&gt;7</title>
<path fill="none" stroke="grey" stroke-width="2" d="M611.67,-503.34C600.73,-495.19 587.54,-485.37 575.56,-476.45"/>
<polygon fill="grey" stroke="grey" stroke-width="2" points="577.97,-473.88 567.86,-470.71 573.79,-479.49 577.97,-473.88"/>
</g>
<!-- 15 -->
<g id="node16" class="node">
<title>15</title>
<path fill="none" stroke="#56d8b9" stroke-width="2" d="M602.26,-252C602.26,-252 504.51,-252 504.51,-252 498.51,-252 492.51,-246 492.51,-240 492.51,-240 492.51,-228 492.51,-228 492.51,-222 498.51,-216 504.51,-216 504.51,-216 602.26,-216 602.26,-216 608.26,-216 614.26,-222 614.26,-228 614.26,-228 614.26,-240 614.26,-240 614.26,-246 608.26,-252 602.26,-252"/>
<text xml:space="preserve" text-anchor="middle" x="553.39" y="-230.12" font-family="sans" font-size="10.00">merge_bracken_species</text>
</g>
<!-- 15&#45;&gt;0 -->
<g id="edge3" class="edge">
<title>15&#45;&gt;0</title>
<path fill="none" stroke="grey" stroke-width="2" d="M558.54,-215.14C562.94,-196.03 566.68,-165.57 553.39,-144 506.8,-68.38 399.32,-37.18 340.55,-25.4"/>
<polygon fill="grey" stroke="grey" stroke-width="2" points="341.55,-22.03 331.08,-23.62 340.25,-28.91 341.55,-22.03"/>
</g>
<!-- 17 -->
<g id="node18" class="node">
<title>17</title>
<path fill="none" stroke="#566bd8" stroke-width="2" d="M532.26,-180C532.26,-180 452.51,-180 452.51,-180 446.51,-180 440.51,-174 440.51,-168 440.51,-168 440.51,-156 440.51,-156 440.51,-150 446.51,-144 452.51,-144 452.51,-144 532.26,-144 532.26,-144 538.26,-144 544.26,-150 544.26,-156 544.26,-156 544.26,-168 544.26,-168 544.26,-174 538.26,-180 532.26,-180"/>
<text xml:space="preserve" text-anchor="middle" x="492.39" y="-158.12" font-family="sans" font-size="10.00">viral_taxa_summary</text>
</g>
<!-- 15&#45;&gt;17 -->
<g id="edge22" class="edge">
<title>15&#45;&gt;17</title>
<path fill="none" stroke="grey" stroke-width="2" d="M538,-215.34C531.47,-207.85 523.71,-198.95 516.46,-190.63"/>
<polygon fill="grey" stroke="grey" stroke-width="2" points="519.19,-188.42 509.98,-183.18 513.91,-193.02 519.19,-188.42"/>
</g>
<!-- 15&#45;&gt;24 -->
<g id="edge32" class="edge">
<title>15&#45;&gt;24</title>
<path fill="none" stroke="grey" stroke-width="2" d="M501.49,-215.1C479.01,-206.19 452.97,-194.26 431.39,-180 411.98,-167.17 413.11,-156.34 393.39,-144 373.37,-131.48 349.94,-121.2 327.99,-113.13"/>
<polygon fill="grey" stroke="grey" stroke-width="2" points="329.42,-109.93 318.83,-109.89 327.09,-116.53 329.42,-109.93"/>
</g>
<!-- 16&#45;&gt;15 -->
<g id="edge20" class="edge">
<title>16&#45;&gt;15</title>
<path fill="none" stroke="grey" stroke-width="2" d="M553.39,-287.34C553.39,-280.75 553.39,-273.08 553.39,-265.67"/>
<polygon fill="grey" stroke="grey" stroke-width="2" points="556.89,-265.93 553.39,-255.93 549.89,-265.93 556.89,-265.93"/>
</g>
<!-- 17&#45;&gt;0 -->
<g id="edge7" class="edge">
<title>17&#45;&gt;0</title>
<path fill="none" stroke="grey" stroke-width="2" d="M468.07,-143.02C434.31,-118.05 373.08,-72.76 334.69,-44.37"/>
<polygon fill="grey" stroke="grey" stroke-width="2" points="337.06,-41.77 326.94,-38.64 332.9,-47.4 337.06,-41.77"/>
</g>
<!-- 17&#45;&gt;24 -->
<g id="edge36" class="edge">
<title>17&#45;&gt;24</title>
<path fill="none" stroke="grey" stroke-width="2" d="M439.72,-145.64C406.37,-135.91 362.77,-123.19 326.02,-112.48"/>
<polygon fill="grey" stroke="grey" stroke-width="2" points="327.33,-109.21 316.75,-109.77 325.37,-115.93 327.33,-109.21"/>
</g>
<!-- 18&#45;&gt;0 -->
<g id="edge5" class="edge">
<title>18&#45;&gt;0</title>
<path fill="none" stroke="grey" stroke-width="2" d="M328.49,-143.3C331.99,-125.12 335.56,-96.14 329.39,-72 327.27,-63.73 323.57,-55.36 319.51,-47.8"/>
<polygon fill="grey" stroke="grey" stroke-width="2" points="322.61,-46.16 314.53,-39.3 316.57,-49.7 322.61,-46.16"/>
</g>
<!-- 18&#45;&gt;24 -->
<g id="edge34" class="edge">
<title>18&#45;&gt;24</title>
<path fill="none" stroke="grey" stroke-width="2" d="M306.22,-143.34C298.27,-135.6 288.76,-126.36 279.96,-117.81"/>
<polygon fill="grey" stroke="grey" stroke-width="2" points="282.58,-115.47 272.97,-111.01 277.7,-120.49 282.58,-115.47"/>
</g>
<!-- 19 -->
<g id="node20" class="node">
<title>19</title>
<path fill="none" stroke="#567bd8" stroke-width="2" d="M462.76,-252C462.76,-252 386.01,-252 386.01,-252 380.01,-252 374.01,-246 374.01,-240 374.01,-240 374.01,-228 374.01,-228 374.01,-222 380.01,-216 386.01,-216 386.01,-216 462.76,-216 462.76,-216 468.76,-216 474.76,-222 474.76,-228 474.76,-228 474.76,-240 474.76,-240 474.76,-246 468.76,-252 462.76,-252"/>
<text xml:space="preserve" text-anchor="middle" x="424.39" y="-230.12" font-family="sans" font-size="10.00">sars_cov2_idxstats</text>
</g>
<!-- 19&#45;&gt;18 -->
<g id="edge24" class="edge">
<title>19&#45;&gt;18</title>
<path fill="none" stroke="grey" stroke-width="2" d="M398.9,-215.15C387.14,-206.93 372.99,-197.02 360.19,-188.06"/>
<polygon fill="grey" stroke="grey" stroke-width="2" points="362.52,-185.42 352.32,-182.55 358.5,-191.15 362.52,-185.42"/>
</g>
<!-- 20&#45;&gt;19 -->
<g id="edge26" class="edge">
<title>20&#45;&gt;19</title>
<path fill="none" stroke="grey" stroke-width="2" d="M424.39,-287.34C424.39,-280.75 424.39,-273.08 424.39,-265.67"/>
<polygon fill="grey" stroke="grey" stroke-width="2" points="427.89,-265.93 424.39,-255.93 420.89,-265.93 427.89,-265.93"/>
</g>
<!-- 22 -->
<g id="node23" class="node">
<title>22</title>
<path fill="none" stroke="#5692d8" stroke-width="2" d="M343.51,-252C343.51,-252 277.26,-252 277.26,-252 271.26,-252 265.26,-246 265.26,-240 265.26,-240 265.26,-228 265.26,-228 265.26,-222 271.26,-216 277.26,-216 277.26,-216 343.51,-216 343.51,-216 349.51,-216 355.51,-222 355.51,-228 355.51,-228 355.51,-240 355.51,-240 355.51,-246 349.51,-252 343.51,-252"/>
<text xml:space="preserve" text-anchor="middle" x="310.39" y="-230.12" font-family="sans" font-size="10.00">sars_cov2_depth</text>
</g>
<!-- 20&#45;&gt;22 -->
<g id="edge29" class="edge">
<title>20&#45;&gt;22</title>
<path fill="none" stroke="grey" stroke-width="2" d="M395.33,-287.15C381.66,-278.76 365.14,-268.62 350.33,-259.52"/>
<polygon fill="grey" stroke="grey" stroke-width="2" points="352.33,-256.65 341.98,-254.4 348.67,-262.61 352.33,-256.65"/>
</g>
<!-- 21 -->
<g id="node22" class="node">
<title>21</title>
<path fill="none" stroke="#56d86b" stroke-width="2" d="M465.64,-396C465.64,-396 331.14,-396 331.14,-396 325.14,-396 319.14,-390 319.14,-384 319.14,-384 319.14,-372 319.14,-372 319.14,-366 325.14,-360 331.14,-360 331.14,-360 465.64,-360 465.64,-360 471.64,-360 477.64,-366 477.64,-372 477.64,-372 477.64,-384 477.64,-384 477.64,-390 471.64,-396 465.64,-396"/>
<text xml:space="preserve" text-anchor="middle" x="398.39" y="-374.12" font-family="sans" font-size="10.00">index_sars_cov2_reference_bwa</text>
</g>
<!-- 21&#45;&gt;20 -->
<g id="edge27" class="edge">
<title>21&#45;&gt;20</title>
<path fill="none" stroke="grey" stroke-width="2" d="M404.95,-359.34C407.46,-352.59 410.39,-344.69 413.21,-337.11"/>
<polygon fill="grey" stroke="grey" stroke-width="2" points="416.49,-338.33 416.69,-327.74 409.92,-335.9 416.49,-338.33"/>
</g>
<!-- 22&#45;&gt;18 -->
<g id="edge25" class="edge">
<title>22&#45;&gt;18</title>
<path fill="none" stroke="grey" stroke-width="2" d="M313.92,-215.34C315.24,-208.75 316.77,-201.08 318.26,-193.67"/>
<polygon fill="grey" stroke="grey" stroke-width="2" points="321.69,-194.36 320.22,-183.87 314.82,-192.99 321.69,-194.36"/>
</g>
<!-- 23 -->
<g id="node24" class="node">
<title>23</title>
<path fill="none" stroke="#56d87b" stroke-width="2" d="M351.14,-324C351.14,-324 213.64,-324 213.64,-324 207.64,-324 201.64,-318 201.64,-312 201.64,-312 201.64,-300 201.64,-300 201.64,-294 207.64,-288 213.64,-288 213.64,-288 351.14,-288 351.14,-288 357.14,-288 363.14,-294 363.14,-300 363.14,-300 363.14,-312 363.14,-312 363.14,-318 357.14,-324 351.14,-324"/>
<text xml:space="preserve" text-anchor="middle" x="282.39" y="-302.12" font-family="sans" font-size="10.00">index_sars_cov2_reference_faidx</text>
</g>
<!-- 23&#45;&gt;22 -->
<g id="edge30" class="edge">
<title>23&#45;&gt;22</title>
<path fill="none" stroke="grey" stroke-width="2" d="M289.45,-287.34C292.19,-280.51 295.39,-272.5 298.46,-264.83"/>
<polygon fill="grey" stroke="grey" stroke-width="2" points="301.64,-266.3 302.1,-255.71 295.14,-263.7 301.64,-266.3"/>
</g>
<!-- 24&#45;&gt;0 -->
<g id="edge8" class="edge">
<title>24&#45;&gt;0</title>
<path fill="none" stroke="grey" stroke-width="2" d="M264.5,-71.34C269.47,-64.1 275.34,-55.53 280.88,-47.45"/>
<polygon fill="grey" stroke="grey" stroke-width="2" points="283.63,-49.62 286.4,-39.4 277.86,-45.67 283.63,-49.62"/>
</g>
</g>
</svg>
